<?xml version="1.0" standalone="no"?><!DOCTYPE svg PUBLIC "-//W3C//DTD SVG 1.1//EN" "http://www.w3.org/Graphics/SVG/1.1/DTD/svg11.dtd"><svg t="1725871561336" class="icon" viewBox="0 0 1024 1024" version="1.1" xmlns="http://www.w3.org/2000/svg" p-id="13664" xmlns:xlink="http://www.w3.org/1999/xlink" width="200" height="200"><path d="M956.64 321.92v64h-48v-64h-32v80.544l38.448 30.864c-7.76 67.68-64.72 112.576-134.432 112.576v-96a32 32 0 0 0-32-32h-160v-64h96a32 32 0 0 0 32-32v-64h32v-96h-32v-32a32 32 0 0 0-32-32h-96a64 64 0 0 0-128 0h-96a32 32 0 0 0-32 32v32h-32v96h32v64a32 32 0 0 0 32 32h96v64h-160a32 32 0 0 0-32 32v96c-69.712 0-126.672-44.912-134.448-112.576l38.448-30.864V321.92h-32v64h-48v-64h-32v80.56l40.896 32.608 0.832-0.032c8.72 84.48 79.52 142.88 166.272 142.88v128a32 32 0 0 0 32 32h64v70.16c-36.704 13.504-63.008 48.448-63.008 89.824v32h192v-32c0-42.112-27.296-77.504-64.992-90.432V737.92h192v69.888c-37.216 13.216-64 48.384-64 90.112v32h192v-32c0-41.728-26.784-76.896-64-90.112V737.92h64a32 32 0 0 0 32-32v-128c86.752 0 157.536-58.368 166.272-142.864l0.832 0.032 40.896-32.608V321.92h-32z" fill="#CED8DF" p-id="13665"></path><path d="M428.656 193.904m-64 0a64 64 0 1 0 128 0 64 64 0 1 0-128 0Z" fill="#FFFFFF" p-id="13666"></path><path d="M620.656 193.904m-64 0a64 64 0 1 0 128 0 64 64 0 1 0-128 0Z" fill="#FFFFFF" p-id="13667"></path><path d="M524.656 497.92c-79.408 0-144 64.576-144 144h80a64 64 0 0 0 128 0h80c0-79.424-64.592-144-144-144z" fill="#E7EBEF" p-id="13668"></path><path d="M524.656 497.92c-79.408 0-144 64.576-144 144h80a64 64 0 0 0 128 0h80c0-79.424-64.592-144-144-144z" fill="#E7EBEF" p-id="13669"></path><path d="M625.728 563.456l-78.448 78.448h45.248l49.952-49.952a128.48 128.48 0 0 0-16.752-28.496z" fill="#BDC6CF" p-id="13670"></path><path d="M300.656 961.904h192v32h-192zM556.656 961.904h192v32h-192z" fill="#CDD7DF" p-id="13671"></path><path d="M428.656 193.904m-32 0a32 32 0 1 0 64 0 32 32 0 1 0-64 0Z" fill="#5886C5" p-id="13672"></path><path d="M620.656 193.904m-32 0a32 32 0 1 0 64 0 32 32 0 1 0-64 0Z" fill="#5886C5" p-id="13673"></path><path d="M252.16 576.512c5.488 0.48 10.848 1.392 16.48 1.392v-32c-5.6 0-10.96-0.752-16.4-1.328l-0.096 31.936zM150.48 532.256a158.336 158.336 0 0 0 25.312 19.616l20.752-24.416a126.592 126.592 0 0 1-25.424-19.488l-20.64 24.288zM144.592 469.856L116.8 485.6c4.56 9.792 9.936 19.04 16.352 27.52l27.744-15.744c-6.672-8.24-11.92-17.6-16.32-27.536zM134.208 433.328L102.4 435.04c0.928 9.008 2.912 17.552 5.2 25.92l31.376-5.216a129.056 129.056 0 0 1-4.752-22.416zM197.952 563.152c9.712 4.16 19.84 7.472 30.48 9.856l11.12-30.08a141.872 141.872 0 0 1-30.56-9.696l-11.04 29.92zM852.768 527.456l20.752 24.416a158.4 158.4 0 0 0 25.312-19.616l-20.64-24.288c-7.68 7.408-16 14.144-25.424 19.488zM888.416 497.392l27.744 15.744a152.48 152.48 0 0 0 16.352-27.52l-27.792-15.76c-4.384 9.92-9.632 19.296-16.32 27.536zM915.104 433.328a128.768 128.768 0 0 1-4.768 22.4l31.392 5.248c2.288-8.384 4.272-16.928 5.2-25.92l-31.84-1.728zM809.76 542.928l11.104 30.08a172.8 172.8 0 0 0 30.496-9.856l-11.04-29.92a141.888 141.888 0 0 1-30.56 9.696zM780.656 545.92v32c5.648 0 11.008-0.912 16.512-1.408l-0.096-31.936c-5.44 0.576-10.8 1.328-16.416 1.328zM332.656 929.904h128v32h-128zM588.656 929.904h128v32h-128zM300.656 225.904h32v32h-32zM716.656 225.904h32v32h-32zM524.656 417.92h64v-64h-128v32h32zM364.64 737.92l64.016 64v-64zM684.656 801.92v-64h-64zM460.656 289.904h128v32h-128zM652.656 641.92h32c0-88.384-71.632-160-160-160s-160 71.616-160 160h32c0-70.592 57.424-128 128-128s128 57.408 128 128z" fill="#90A1B1" p-id="13674"></path><path d="M642.464 591.904l23.984-24.096a159.12 159.12 0 0 0-18-27.248l-23.136 23.232c6.752 8.672 12.8 17.888 17.152 28.112z" fill="#607182" p-id="13675"></path><path d="M663.968 502.592a16 16 0 0 0-22.624 0l-108.896 108.88c-2.56-0.64-5.024-1.568-7.792-1.568a32 32 0 1 0 32 32c0-2.768-0.912-5.232-1.568-7.792l108.88-108.896a16 16 0 0 0 0-22.624z" fill="#010101" p-id="13676"></path></svg>